<svg xmlns="http://www.w3.org/2000/svg" xmlns:xlink="http://www.w3.org/1999/xlink" width="512" zoomAndPan="magnify" viewBox="0 0 384 383.999986" height="512" preserveAspectRatio="xMidYMid meet" version="1.0"><defs><g/><clipPath id="2bf7804a9c"><path d="M 25.664062 25.664062 L 358.664062 25.664062 L 358.664062 358.664062 L 25.664062 358.664062 Z M 25.664062 25.664062 " clip-rule="nonzero"/></clipPath><clipPath id="8ffa280364"><path d="M 25.664062 25.664062 L 358.664062 25.664062 L 358.664062 358.664062 L 25.664062 358.664062 Z M 25.664062 25.664062 " clip-rule="nonzero"/></clipPath><clipPath id="186cc137d4"><path d="M 84.863281 25.664062 L 299.460938 25.664062 C 301.402344 25.664062 303.335938 25.757812 305.265625 25.949219 C 307.195312 26.136719 309.109375 26.421875 311.011719 26.800781 C 312.914062 27.179688 314.792969 27.648438 316.648438 28.210938 C 318.503906 28.773438 320.324219 29.425781 322.117188 30.167969 C 323.910156 30.910156 325.660156 31.738281 327.367188 32.652344 C 329.078125 33.566406 330.738281 34.5625 332.351562 35.640625 C 333.964844 36.714844 335.519531 37.871094 337.019531 39.101562 C 338.515625 40.332031 339.953125 41.628906 341.324219 43 C 342.695312 44.371094 343.996094 45.808594 345.222656 47.304688 C 346.453125 48.804688 347.609375 50.359375 348.683594 51.972656 C 349.761719 53.585938 350.757812 55.246094 351.671875 56.957031 C 352.585938 58.664062 353.414062 60.417969 354.15625 62.207031 C 354.898438 64 355.550781 65.820312 356.113281 67.675781 C 356.675781 69.53125 357.148438 71.410156 357.523438 73.3125 C 357.902344 75.214844 358.1875 77.128906 358.378906 79.058594 C 358.566406 80.988281 358.664062 82.921875 358.664062 84.863281 L 358.664062 299.460938 C 358.664062 301.402344 358.566406 303.335938 358.378906 305.265625 C 358.1875 307.195312 357.902344 309.109375 357.523438 311.011719 C 357.148438 312.914062 356.675781 314.792969 356.113281 316.648438 C 355.550781 318.503906 354.898438 320.324219 354.15625 322.117188 C 353.414062 323.910156 352.585938 325.660156 351.671875 327.367188 C 350.757812 329.078125 349.761719 330.738281 348.683594 332.351562 C 347.609375 333.964844 346.453125 335.519531 345.222656 337.019531 C 343.996094 338.515625 342.695312 339.953125 341.324219 341.324219 C 339.953125 342.695312 338.515625 343.996094 337.019531 345.222656 C 335.519531 346.453125 333.964844 347.609375 332.351562 348.683594 C 330.738281 349.761719 329.078125 350.757812 327.367188 351.671875 C 325.660156 352.585938 323.910156 353.414062 322.117188 354.15625 C 320.324219 354.898438 318.503906 355.550781 316.648438 356.113281 C 314.792969 356.675781 312.914062 357.148438 311.011719 357.523438 C 309.109375 357.902344 307.195312 358.1875 305.265625 358.378906 C 303.335938 358.566406 301.402344 358.664062 299.460938 358.664062 L 84.863281 358.664062 C 82.921875 358.664062 80.988281 358.566406 79.058594 358.378906 C 77.128906 358.1875 75.214844 357.902344 73.3125 357.523438 C 71.410156 357.148438 69.53125 356.675781 67.675781 356.113281 C 65.820312 355.550781 64 354.898438 62.207031 354.15625 C 60.417969 353.414062 58.664062 352.585938 56.957031 351.671875 C 55.246094 350.757812 53.585938 349.761719 51.972656 348.683594 C 50.359375 347.609375 48.804688 346.453125 47.304688 345.222656 C 45.808594 343.996094 44.371094 342.695312 43 341.324219 C 41.628906 339.953125 40.332031 338.515625 39.101562 337.019531 C 37.871094 335.519531 36.714844 333.964844 35.640625 332.351562 C 34.5625 330.738281 33.566406 329.078125 32.652344 327.367188 C 31.738281 325.660156 30.910156 323.910156 30.167969 322.117188 C 29.425781 320.324219 28.773438 318.503906 28.210938 316.648438 C 27.648438 314.792969 27.179688 312.914062 26.800781 311.011719 C 26.421875 309.109375 26.136719 307.195312 25.949219 305.265625 C 25.757812 303.335938 25.664062 301.402344 25.664062 299.460938 L 25.664062 84.863281 C 25.664062 82.921875 25.757812 80.988281 25.949219 79.058594 C 26.136719 77.128906 26.421875 75.214844 26.800781 73.3125 C 27.179688 71.410156 27.648438 69.53125 28.210938 67.675781 C 28.773438 65.820312 29.425781 64 30.167969 62.207031 C 30.910156 60.417969 31.738281 58.664062 32.652344 56.957031 C 33.566406 55.246094 34.5625 53.585938 35.640625 51.972656 C 36.714844 50.359375 37.871094 48.804688 39.101562 47.304688 C 40.332031 45.808594 41.628906 44.371094 43 43 C 44.371094 41.628906 45.808594 40.332031 47.304688 39.101562 C 48.804688 37.871094 50.359375 36.714844 51.972656 35.640625 C 53.585938 34.5625 55.246094 33.566406 56.957031 32.652344 C 58.664062 31.738281 60.417969 30.910156 62.207031 30.167969 C 64 29.425781 65.820312 28.773438 67.675781 28.210938 C 69.53125 27.648438 71.410156 27.179688 73.3125 26.800781 C 75.214844 26.421875 77.128906 26.136719 79.058594 25.949219 C 80.988281 25.757812 82.921875 25.664062 84.863281 25.664062 Z M 84.863281 25.664062 " clip-rule="nonzero"/></clipPath><linearGradient x1="0.0000000250172" gradientTransform="matrix(332.999988, 0, 0, 332.999988, 25.662314, 25.662289)" y1="0.0000000250172" x2="1" gradientUnits="userSpaceOnUse" y2="1" id="5cf9edfc18"><stop stop-opacity="1" stop-color="rgb(88.62915%, 83.918762%, 96.078491%)" offset="0"/><stop stop-opacity="1" stop-color="rgb(88.543701%, 83.790588%, 96.02356%)" offset="0.015625"/><stop stop-opacity="1" stop-color="rgb(88.371277%, 83.532715%, 95.913696%)" offset="0.03125"/><stop stop-opacity="1" stop-color="rgb(88.200378%, 83.276367%, 95.803833%)" offset="0.046875"/><stop stop-opacity="1" stop-color="rgb(88.027954%, 83.018494%, 95.692444%)" offset="0.0625"/><stop stop-opacity="1" stop-color="rgb(87.857056%, 82.762146%, 95.582581%)" offset="0.078125"/><stop stop-opacity="1" stop-color="rgb(87.684631%, 82.504272%, 95.472717%)" offset="0.09375"/><stop stop-opacity="1" stop-color="rgb(87.513733%, 82.246399%, 95.361328%)" offset="0.109375"/><stop stop-opacity="1" stop-color="rgb(87.342834%, 81.990051%, 95.251465%)" offset="0.125"/><stop stop-opacity="1" stop-color="rgb(87.17041%, 81.732178%, 95.141602%)" offset="0.140625"/><stop stop-opacity="1" stop-color="rgb(86.999512%, 81.47583%, 95.031738%)" offset="0.15625"/><stop stop-opacity="1" stop-color="rgb(86.827087%, 81.217957%, 94.920349%)" offset="0.171875"/><stop stop-opacity="1" stop-color="rgb(86.656189%, 80.961609%, 94.810486%)" offset="0.1875"/><stop stop-opacity="1" stop-color="rgb(86.483765%, 80.703735%, 94.700623%)" offset="0.203125"/><stop stop-opacity="1" stop-color="rgb(86.312866%, 80.447388%, 94.589233%)" offset="0.21875"/><stop stop-opacity="1" stop-color="rgb(86.141968%, 80.189514%, 94.47937%)" offset="0.234375"/><stop stop-opacity="1" stop-color="rgb(85.969543%, 79.933167%, 94.369507%)" offset="0.25"/><stop stop-opacity="1" stop-color="rgb(85.798645%, 79.675293%, 94.258118%)" offset="0.265625"/><stop stop-opacity="1" stop-color="rgb(85.626221%, 79.417419%, 94.148254%)" offset="0.28125"/><stop stop-opacity="1" stop-color="rgb(85.455322%, 79.161072%, 94.038391%)" offset="0.296875"/><stop stop-opacity="1" stop-color="rgb(85.282898%, 78.903198%, 93.928528%)" offset="0.3125"/><stop stop-opacity="1" stop-color="rgb(85.112%, 78.646851%, 93.817139%)" offset="0.328125"/><stop stop-opacity="1" stop-color="rgb(84.939575%, 78.388977%, 93.707275%)" offset="0.34375"/><stop stop-opacity="1" stop-color="rgb(84.768677%, 78.132629%, 93.597412%)" offset="0.359375"/><stop stop-opacity="1" stop-color="rgb(84.597778%, 77.874756%, 93.486023%)" offset="0.375"/><stop stop-opacity="1" stop-color="rgb(84.425354%, 77.618408%, 93.37616%)" offset="0.390625"/><stop stop-opacity="1" stop-color="rgb(84.254456%, 77.360535%, 93.266296%)" offset="0.40625"/><stop stop-opacity="1" stop-color="rgb(84.082031%, 77.102661%, 93.156433%)" offset="0.421875"/><stop stop-opacity="1" stop-color="rgb(83.911133%, 76.846313%, 93.045044%)" offset="0.4375"/><stop stop-opacity="1" stop-color="rgb(83.738708%, 76.58844%, 92.935181%)" offset="0.453125"/><stop stop-opacity="1" stop-color="rgb(83.56781%, 76.332092%, 92.825317%)" offset="0.46875"/><stop stop-opacity="1" stop-color="rgb(83.396912%, 76.074219%, 92.713928%)" offset="0.484375"/><stop stop-opacity="1" stop-color="rgb(83.224487%, 75.817871%, 92.604065%)" offset="0.5"/><stop stop-opacity="1" stop-color="rgb(82.954407%, 75.511169%, 92.401123%)" offset="0.515625"/><stop stop-opacity="1" stop-color="rgb(82.58667%, 75.15564%, 92.108154%)" offset="0.53125"/><stop stop-opacity="1" stop-color="rgb(82.218933%, 74.80011%, 91.81366%)" offset="0.546875"/><stop stop-opacity="1" stop-color="rgb(81.851196%, 74.44458%, 91.519165%)" offset="0.5625"/><stop stop-opacity="1" stop-color="rgb(81.483459%, 74.087524%, 91.22467%)" offset="0.578125"/><stop stop-opacity="1" stop-color="rgb(81.115723%, 73.731995%, 90.931702%)" offset="0.59375"/><stop stop-opacity="1" stop-color="rgb(80.747986%, 73.376465%, 90.637207%)" offset="0.609375"/><stop stop-opacity="1" stop-color="rgb(80.380249%, 73.020935%, 90.342712%)" offset="0.625"/><stop stop-opacity="1" stop-color="rgb(80.012512%, 72.665405%, 90.049744%)" offset="0.640625"/><stop stop-opacity="1" stop-color="rgb(79.644775%, 72.309875%, 89.755249%)" offset="0.65625"/><stop stop-opacity="1" stop-color="rgb(79.277039%, 71.954346%, 89.460754%)" offset="0.671875"/><stop stop-opacity="1" stop-color="rgb(78.909302%, 71.598816%, 89.16626%)" offset="0.6875"/><stop stop-opacity="1" stop-color="rgb(78.541565%, 71.243286%, 88.873291%)" offset="0.703125"/><stop stop-opacity="1" stop-color="rgb(78.172302%, 70.887756%, 88.578796%)" offset="0.71875"/><stop stop-opacity="1" stop-color="rgb(77.804565%, 70.532227%, 88.284302%)" offset="0.734375"/><stop stop-opacity="1" stop-color="rgb(77.436829%, 70.176697%, 87.991333%)" offset="0.75"/><stop stop-opacity="1" stop-color="rgb(77.069092%, 69.821167%, 87.696838%)" offset="0.765625"/><stop stop-opacity="1" stop-color="rgb(76.701355%, 69.465637%, 87.402344%)" offset="0.78125"/><stop stop-opacity="1" stop-color="rgb(76.333618%, 69.110107%, 87.107849%)" offset="0.796875"/><stop stop-opacity="1" stop-color="rgb(75.965881%, 68.754578%, 86.81488%)" offset="0.8125"/><stop stop-opacity="1" stop-color="rgb(75.598145%, 68.397522%, 86.520386%)" offset="0.828125"/><stop stop-opacity="1" stop-color="rgb(75.230408%, 68.041992%, 86.225891%)" offset="0.84375"/><stop stop-opacity="1" stop-color="rgb(74.862671%, 67.686462%, 85.932922%)" offset="0.859375"/><stop stop-opacity="1" stop-color="rgb(74.494934%, 67.330933%, 85.638428%)" offset="0.875"/><stop stop-opacity="1" stop-color="rgb(74.127197%, 66.975403%, 85.343933%)" offset="0.890625"/><stop stop-opacity="1" stop-color="rgb(73.75946%, 66.619873%, 85.049438%)" offset="0.90625"/><stop stop-opacity="1" stop-color="rgb(73.391724%, 66.264343%, 84.75647%)" offset="0.921875"/><stop stop-opacity="1" stop-color="rgb(73.023987%, 65.908813%, 84.461975%)" offset="0.9375"/><stop stop-opacity="1" stop-color="rgb(72.65625%, 65.553284%, 84.16748%)" offset="0.953125"/><stop stop-opacity="1" stop-color="rgb(72.288513%, 65.197754%, 83.874512%)" offset="0.96875"/><stop stop-opacity="1" stop-color="rgb(71.920776%, 64.842224%, 83.580017%)" offset="0.984375"/><stop stop-opacity="1" stop-color="rgb(71.55304%, 64.486694%, 83.285522%)" offset="1"/></linearGradient><clipPath id="43c6f42924"><path d="M 130 102 L 254 102 L 254 209 L 130 209 Z M 130 102 " clip-rule="nonzero"/></clipPath><clipPath id="58a64c3856"><path d="M 145.914062 118.164062 C 127.414062 108.914062 127.414062 145.914062 136.664062 164.414062 C 127.414062 182.914062 145.914062 201.414062 173.664062 201.414062 C 192.164062 210.664062 210.664062 210.664062 229.164062 201.414062 C 256.914062 201.414062 256.914062 164.414062 247.664062 145.914062 C 256.914062 127.414062 238.414062 108.914062 210.664062 108.914062 C 192.164062 99.664062 173.664062 99.664062 145.914062 118.164062 Z M 145.914062 118.164062 " clip-rule="nonzero"/></clipPath><linearGradient x1="-0.0279853" gradientTransform="matrix(122.608104, 0, 0, 105.513401, 130.586413, 102.836386)" y1="-0.0279853" x2="1.02612" gradientUnits="userSpaceOnUse" y2="1.02612" id="09d4c7d5a9"><stop stop-opacity="1" stop-color="rgb(100%, 100%, 100%)" offset="0"/><stop stop-opacity="1" stop-color="rgb(99.946594%, 99.887085%, 100%)" offset="0.0625"/><stop stop-opacity="1" stop-color="rgb(99.803162%, 99.581909%, 100%)" offset="0.125"/><stop stop-opacity="1" stop-color="rgb(99.623108%, 99.195862%, 100%)" offset="0.1875"/><stop stop-opacity="1" stop-color="rgb(99.441528%, 98.808289%, 100%)" offset="0.25"/><stop stop-opacity="1" stop-color="rgb(99.259949%, 98.420715%, 100%)" offset="0.3125"/><stop stop-opacity="1" stop-color="rgb(99.079895%, 98.033142%, 100%)" offset="0.375"/><stop stop-opacity="1" stop-color="rgb(98.898315%, 97.645569%, 100%)" offset="0.4375"/><stop stop-opacity="1" stop-color="rgb(98.716736%, 97.257996%, 100%)" offset="0.499001"/><stop stop-opacity="1" stop-color="rgb(98.626709%, 97.064209%, 100%)" offset="0.5"/><stop stop-opacity="1" stop-color="rgb(98.535156%, 96.870422%, 100%)" offset="0.500999"/><stop stop-opacity="1" stop-color="rgb(98.445129%, 96.676636%, 100%)" offset="0.5625"/><stop stop-opacity="1" stop-color="rgb(98.355103%, 96.482849%, 100%)" offset="0.625"/><stop stop-opacity="1" stop-color="rgb(98.173523%, 96.096802%, 100%)" offset="0.6875"/><stop stop-opacity="1" stop-color="rgb(97.991943%, 95.709229%, 100%)" offset="0.75"/><stop stop-opacity="1" stop-color="rgb(97.810364%, 95.321655%, 100%)" offset="0.8125"/><stop stop-opacity="1" stop-color="rgb(97.63031%, 94.934082%, 100%)" offset="0.875"/><stop stop-opacity="1" stop-color="rgb(97.44873%, 94.546509%, 100%)" offset="0.9375"/><stop stop-opacity="1" stop-color="rgb(97.303772%, 94.235229%, 100%)" offset="1"/></linearGradient></defs><rect x="-38.4" width="460.8" fill="#ffffff" y="-38.399999" height="460.799983" fill-opacity="1"/><rect x="-38.4" width="460.8" fill="#ffffff" y="-38.399999" height="460.799983" fill-opacity="1"/><g clip-path="url(#2bf7804a9c)"><path fill="#ffffff" d="M 25.664062 25.664062 L 358.664062 25.664062 L 358.664062 358.664062 L 25.664062 358.664062 Z M 25.664062 25.664062 " fill-opacity="1" fill-rule="nonzero"/></g><g clip-path="url(#8ffa280364)"><g clip-path="url(#186cc137d4)"><path fill="url(#5cf9edfc18)" d="M 25.664062 25.664062 L 25.664062 358.664062 L 358.664062 358.664062 L 358.664062 25.664062 Z M 25.664062 25.664062 " fill-rule="nonzero"/></g></g><g clip-path="url(#43c6f42924)"><g clip-path="url(#58a64c3856)"><path fill="url(#09d4c7d5a9)" d="M 127.414062 99.664062 L 127.414062 210.664062 L 256.914062 210.664062 L 256.914062 99.664062 Z M 127.414062 99.664062 " fill-rule="nonzero"/></g></g><path stroke-linecap="butt" transform="matrix(1.85, 0, 0, 1.85, 192.162297, 155.162301)" fill="none" stroke-linejoin="miter" d="M -24.999047 -19.999049 C -34.999048 -24.999049 -34.999048 -4.999048 -29.999047 5.000952 C -34.999048 15.000953 -24.999047 25.000953 -9.999046 25.000953 C 0.000954439 30.000954 10.000955 30.000954 20.000956 25.000953 C 35.000956 25.000953 35.000956 5.000952 30.000956 -4.999048 C 35.000956 -14.999049 25.000956 -24.999049 10.000955 -24.999049 C 0.000954439 -29.99905 -9.999046 -29.99905 -24.999047 -19.999049 Z M -24.999047 -19.999049 " stroke="#161619" stroke-width="2" stroke-opacity="1" stroke-miterlimit="4"/><path stroke-linecap="round" transform="matrix(1.85, 0, 0, 1.85, 192.162297, 155.162301)" fill="none" stroke-linejoin="miter" d="M -19.999047 -9.999049 C -13.333083 -13.333086 -6.66712 -13.333086 0.000954439 -9.999049 C 6.666918 -6.667123 13.332881 -6.667123 20.000956 -9.999049 " stroke="#b6a4d4" stroke-width="2" stroke-opacity="1" stroke-miterlimit="4"/><path stroke-linecap="round" transform="matrix(1.85, 0, 0, 1.85, 192.162297, 155.162301)" fill="none" stroke-linejoin="miter" d="M -14.999046 0.000951991 C -8.333083 -3.333085 -1.66712 -3.333085 5.000955 0.000951991 C 11.666918 3.332878 18.332881 3.332878 25.000956 0.000951991 " stroke="#b6a4d4" stroke-width="2" stroke-opacity="1" stroke-miterlimit="4"/><path stroke-linecap="round" transform="matrix(1.85, 0, 0, 1.85, 192.162297, 155.162301)" fill="none" stroke-linejoin="miter" d="M -19.999047 10.000953 C -13.333083 6.666915 -6.66712 6.666915 0.000954439 10.000953 C 6.666918 13.332878 13.332881 13.332878 20.000956 10.000953 " stroke="#b6a4d4" stroke-width="2" stroke-opacity="1" stroke-miterlimit="4"/><path stroke-linecap="butt" transform="matrix(1.85, 0, 0, 1.85, 275.41229, 108.912296)" fill-opacity="1" fill="#a0d2db" fill-rule="nonzero" stroke-linejoin="miter" d="M 0.000958002 0.000954769 L -7.999465 12.000533 L -2.999464 12.000533 L -4.999042 20.000956 L 2.999269 7.999266 L -2.000731 7.999266 Z M 0.000958002 0.000954769 " stroke="#161619" stroke-width="1" stroke-opacity="1" stroke-miterlimit="4"/><g fill="#161619" fill-opacity="1"><g transform="translate(107.117575, 266.15709)"><g><path d="M 3.0625 -24.28125 L 9.3125 -24.28125 L 9.3125 -4.734375 L 20.3125 -4.734375 L 20.3125 0 L 3.0625 0 Z M 3.0625 -24.28125 "/></g></g></g><g fill="#161619" fill-opacity="1"><g transform="translate(128.330589, 266.15709)"><g><path d="M 20.96875 -9.15625 L 20.96875 -7.5 L 7.359375 -7.5 C 7.503906 -6.132812 8 -5.109375 8.84375 -4.421875 C 9.6875 -3.734375 10.867188 -3.390625 12.390625 -3.390625 C 13.609375 -3.390625 14.859375 -3.570312 16.140625 -3.9375 C 17.429688 -4.300781 18.753906 -4.851562 20.109375 -5.59375 L 20.109375 -1.109375 C 18.734375 -0.585938 17.359375 -0.195312 15.984375 0.0625 C 14.609375 0.332031 13.234375 0.46875 11.859375 0.46875 C 8.554688 0.46875 5.992188 -0.363281 4.171875 -2.03125 C 2.347656 -3.707031 1.4375 -6.0625 1.4375 -9.09375 C 1.4375 -12.0625 2.332031 -14.394531 4.125 -16.09375 C 5.914062 -17.789062 8.382812 -18.640625 11.53125 -18.640625 C 14.382812 -18.640625 16.671875 -17.78125 18.390625 -16.0625 C 20.109375 -14.34375 20.96875 -12.039062 20.96875 -9.15625 Z M 14.984375 -11.09375 C 14.984375 -12.195312 14.660156 -13.085938 14.015625 -13.765625 C 13.378906 -14.441406 12.539062 -14.78125 11.5 -14.78125 C 10.363281 -14.78125 9.441406 -14.460938 8.734375 -13.828125 C 8.035156 -13.191406 7.601562 -12.28125 7.4375 -11.09375 Z M 14.984375 -11.09375 "/></g></g></g><g fill="#161619" fill-opacity="1"><g transform="translate(150.909039, 266.15709)"><g><path d="M 20.96875 -9.15625 L 20.96875 -7.5 L 7.359375 -7.5 C 7.503906 -6.132812 8 -5.109375 8.84375 -4.421875 C 9.6875 -3.734375 10.867188 -3.390625 12.390625 -3.390625 C 13.609375 -3.390625 14.859375 -3.570312 16.140625 -3.9375 C 17.429688 -4.300781 18.753906 -4.851562 20.109375 -5.59375 L 20.109375 -1.109375 C 18.734375 -0.585938 17.359375 -0.195312 15.984375 0.0625 C 14.609375 0.332031 13.234375 0.46875 11.859375 0.46875 C 8.554688 0.46875 5.992188 -0.363281 4.171875 -2.03125 C 2.347656 -3.707031 1.4375 -6.0625 1.4375 -9.09375 C 1.4375 -12.0625 2.332031 -14.394531 4.125 -16.09375 C 5.914062 -17.789062 8.382812 -18.640625 11.53125 -18.640625 C 14.382812 -18.640625 16.671875 -17.78125 18.390625 -16.0625 C 20.109375 -14.34375 20.96875 -12.039062 20.96875 -9.15625 Z M 14.984375 -11.09375 C 14.984375 -12.195312 14.660156 -13.085938 14.015625 -13.765625 C 13.378906 -14.441406 12.539062 -14.78125 11.5 -14.78125 C 10.363281 -14.78125 9.441406 -14.460938 8.734375 -13.828125 C 8.035156 -13.191406 7.601562 -12.28125 7.4375 -11.09375 Z M 14.984375 -11.09375 "/></g></g></g><g fill="#161619" fill-opacity="1"><g transform="translate(173.487489, 266.15709)"><g><path d="M 9.15625 -23.375 L 9.15625 -18.203125 L 15.15625 -18.203125 L 15.15625 -14.046875 L 9.15625 -14.046875 L 9.15625 -6.328125 C 9.15625 -5.484375 9.320312 -4.910156 9.65625 -4.609375 C 9.988281 -4.304688 10.65625 -4.15625 11.65625 -4.15625 L 14.65625 -4.15625 L 14.65625 0 L 9.65625 0 C 7.351562 0 5.722656 -0.476562 4.765625 -1.4375 C 3.804688 -2.394531 3.328125 -4.023438 3.328125 -6.328125 L 3.328125 -14.046875 L 0.4375 -14.046875 L 0.4375 -18.203125 L 3.328125 -18.203125 L 3.328125 -23.375 Z M 9.15625 -23.375 "/></g></g></g><g fill="#161619" fill-opacity="1"><g transform="translate(189.401313, 266.15709)"><g><path d="M 3.0625 -24.28125 L 19.953125 -24.28125 L 19.953125 -19.546875 L 9.3125 -19.546875 L 9.3125 -15.015625 L 19.3125 -15.015625 L 19.3125 -10.296875 L 9.3125 -10.296875 L 9.3125 0 L 3.0625 0 Z M 3.0625 -24.28125 "/></g></g></g><g fill="#161619" fill-opacity="1"><g transform="translate(212.142314, 266.15709)"><g><path d="M 2.796875 -25.296875 L 8.609375 -25.296875 L 8.609375 0 L 2.796875 0 Z M 2.796875 -25.296875 "/></g></g></g><g fill="#161619" fill-opacity="1"><g transform="translate(223.553453, 266.15709)"><g><path d="M 11.46875 -14.484375 C 10.175781 -14.484375 9.191406 -14.019531 8.515625 -13.09375 C 7.835938 -12.164062 7.5 -10.832031 7.5 -9.09375 C 7.5 -7.34375 7.835938 -6.003906 8.515625 -5.078125 C 9.191406 -4.148438 10.175781 -3.6875 11.46875 -3.6875 C 12.726562 -3.6875 13.691406 -4.148438 14.359375 -5.078125 C 15.035156 -6.003906 15.375 -7.34375 15.375 -9.09375 C 15.375 -10.832031 15.035156 -12.164062 14.359375 -13.09375 C 13.691406 -14.019531 12.726562 -14.484375 11.46875 -14.484375 Z M 11.46875 -18.640625 C 14.59375 -18.640625 17.035156 -17.796875 18.796875 -16.109375 C 20.554688 -14.421875 21.4375 -12.082031 21.4375 -9.09375 C 21.4375 -6.09375 20.554688 -3.75 18.796875 -2.0625 C 17.035156 -0.375 14.59375 0.46875 11.46875 0.46875 C 8.320312 0.46875 5.863281 -0.375 4.09375 -2.0625 C 2.320312 -3.75 1.4375 -6.09375 1.4375 -9.09375 C 1.4375 -12.082031 2.320312 -14.421875 4.09375 -16.109375 C 5.863281 -17.796875 8.320312 -18.640625 11.46875 -18.640625 Z M 11.46875 -18.640625 "/></g></g></g><g fill="#161619" fill-opacity="1"><g transform="translate(246.424496, 266.15709)"><g><path d="M 1.171875 -18.203125 L 6.828125 -18.203125 L 9.890625 -5.65625 L 12.953125 -18.203125 L 17.8125 -18.203125 L 20.875 -5.78125 L 23.953125 -18.203125 L 29.609375 -18.203125 L 24.8125 0 L 18.453125 0 L 15.375 -12.515625 L 12.328125 0 L 5.96875 0 Z M 1.171875 -18.203125 "/></g></g></g><g fill="#4d4765" fill-opacity="1"><g transform="translate(89.0529, 303.154483)"><g><path d="M 4 -7.078125 L 4 -1.65625 L 7.21875 -1.65625 C 8.300781 -1.65625 9.101562 -1.875 9.625 -2.3125 C 10.144531 -2.757812 10.40625 -3.445312 10.40625 -4.375 C 10.40625 -5.300781 10.144531 -5.984375 9.625 -6.421875 C 9.101562 -6.859375 8.300781 -7.078125 7.21875 -7.078125 Z M 4 -13.1875 L 4 -8.71875 L 6.96875 -8.71875 C 7.945312 -8.71875 8.675781 -8.898438 9.15625 -9.265625 C 9.644531 -9.628906 9.890625 -10.191406 9.890625 -10.953125 C 9.890625 -11.691406 9.644531 -12.25 9.15625 -12.625 C 8.675781 -13 7.945312 -13.1875 6.96875 -13.1875 Z M 2 -14.828125 L 7.125 -14.828125 C 8.65625 -14.828125 9.832031 -14.507812 10.65625 -13.875 C 11.488281 -13.238281 11.90625 -12.335938 11.90625 -11.171875 C 11.90625 -10.253906 11.691406 -9.523438 11.265625 -8.984375 C 10.835938 -8.453125 10.210938 -8.125 9.390625 -8 C 10.378906 -7.78125 11.144531 -7.332031 11.6875 -6.65625 C 12.238281 -5.988281 12.515625 -5.15625 12.515625 -4.15625 C 12.515625 -2.832031 12.0625 -1.804688 11.15625 -1.078125 C 10.257812 -0.359375 8.984375 0 7.328125 0 L 2 0 Z M 2 -14.828125 "/></g></g></g><g fill="#4d4765" fill-opacity="1"><g transform="translate(103.007099, 303.154483)"><g><path d="M 11.4375 -6.015625 L 11.4375 -5.125 L 3.03125 -5.125 C 3.113281 -3.863281 3.492188 -2.90625 4.171875 -2.25 C 4.847656 -1.59375 5.789062 -1.265625 7 -1.265625 C 7.707031 -1.265625 8.390625 -1.347656 9.046875 -1.515625 C 9.703125 -1.691406 10.351562 -1.953125 11 -2.296875 L 11 -0.5625 C 10.34375 -0.289062 9.671875 -0.0820312 8.984375 0.0625 C 8.296875 0.207031 7.597656 0.28125 6.890625 0.28125 C 5.117188 0.28125 3.710938 -0.234375 2.671875 -1.265625 C 1.640625 -2.296875 1.125 -3.691406 1.125 -5.453125 C 1.125 -7.273438 1.613281 -8.71875 2.59375 -9.78125 C 3.582031 -10.851562 4.910156 -11.390625 6.578125 -11.390625 C 8.078125 -11.390625 9.257812 -10.90625 10.125 -9.9375 C 11 -8.976562 11.4375 -7.671875 11.4375 -6.015625 Z M 9.609375 -6.5625 C 9.585938 -7.5625 9.304688 -8.359375 8.765625 -8.953125 C 8.222656 -9.546875 7.5 -9.84375 6.59375 -9.84375 C 5.570312 -9.84375 4.753906 -9.550781 4.140625 -8.96875 C 3.535156 -8.394531 3.1875 -7.585938 3.09375 -6.546875 Z M 9.609375 -6.5625 "/></g></g></g><g fill="#4d4765" fill-opacity="1"><g transform="translate(115.521184, 303.154483)"><g><path d="M 6.96875 -5.59375 C 5.5 -5.59375 4.476562 -5.421875 3.90625 -5.078125 C 3.332031 -4.742188 3.046875 -4.171875 3.046875 -3.359375 C 3.046875 -2.710938 3.257812 -2.195312 3.6875 -1.8125 C 4.113281 -1.425781 4.695312 -1.234375 5.4375 -1.234375 C 6.445312 -1.234375 7.257812 -1.59375 7.875 -2.3125 C 8.488281 -3.03125 8.796875 -3.988281 8.796875 -5.1875 L 8.796875 -5.59375 Z M 10.625 -6.34375 L 10.625 0 L 8.796875 0 L 8.796875 -1.6875 C 8.378906 -1.007812 7.859375 -0.507812 7.234375 -0.1875 C 6.609375 0.125 5.847656 0.28125 4.953125 0.28125 C 3.804688 0.28125 2.894531 -0.0351562 2.21875 -0.671875 C 1.550781 -1.304688 1.21875 -2.160156 1.21875 -3.234375 C 1.21875 -4.484375 1.632812 -5.425781 2.46875 -6.0625 C 3.3125 -6.695312 4.566406 -7.015625 6.234375 -7.015625 L 8.796875 -7.015625 L 8.796875 -7.203125 C 8.796875 -8.046875 8.515625 -8.695312 7.953125 -9.15625 C 7.398438 -9.613281 6.625 -9.84375 5.625 -9.84375 C 4.988281 -9.84375 4.367188 -9.765625 3.765625 -9.609375 C 3.171875 -9.460938 2.59375 -9.238281 2.03125 -8.9375 L 2.03125 -10.625 C 2.707031 -10.875 3.359375 -11.0625 3.984375 -11.1875 C 4.609375 -11.320312 5.222656 -11.390625 5.828125 -11.390625 C 7.429688 -11.390625 8.628906 -10.972656 9.421875 -10.140625 C 10.222656 -9.304688 10.625 -8.039062 10.625 -6.34375 Z M 10.625 -6.34375 "/></g></g></g><g fill="#4d4765" fill-opacity="1"><g transform="translate(127.985611, 303.154483)"><g><path d="M 3.71875 -14.28125 L 3.71875 -11.125 L 7.484375 -11.125 L 7.484375 -9.703125 L 3.71875 -9.703125 L 3.71875 -3.671875 C 3.71875 -2.753906 3.84375 -2.164062 4.09375 -1.90625 C 4.34375 -1.65625 4.847656 -1.53125 5.609375 -1.53125 L 7.484375 -1.53125 L 7.484375 0 L 5.609375 0 C 4.203125 0 3.226562 -0.257812 2.6875 -0.78125 C 2.15625 -1.3125 1.890625 -2.273438 1.890625 -3.671875 L 1.890625 -9.703125 L 0.546875 -9.703125 L 0.546875 -11.125 L 1.890625 -11.125 L 1.890625 -14.28125 Z M 3.71875 -14.28125 "/></g></g></g><g fill="#4d4765" fill-opacity="1"><g transform="translate(135.960857, 303.154483)"><g/></g></g><g fill="#4d4765" fill-opacity="1"><g transform="translate(142.426468, 303.154483)"><g><path d="M 4 -13.1875 L 4 -7.609375 L 6.53125 -7.609375 C 7.457031 -7.609375 8.175781 -7.847656 8.6875 -8.328125 C 9.195312 -8.816406 9.453125 -9.507812 9.453125 -10.40625 C 9.453125 -11.289062 9.195312 -11.972656 8.6875 -12.453125 C 8.175781 -12.941406 7.457031 -13.1875 6.53125 -13.1875 Z M 2 -14.828125 L 6.53125 -14.828125 C 8.1875 -14.828125 9.441406 -14.453125 10.296875 -13.703125 C 11.148438 -12.953125 11.578125 -11.851562 11.578125 -10.40625 C 11.578125 -8.9375 11.148438 -7.828125 10.296875 -7.078125 C 9.441406 -6.328125 8.1875 -5.953125 6.53125 -5.953125 L 4 -5.953125 L 4 0 L 2 0 Z M 2 -14.828125 "/></g></g></g><g fill="#4d4765" fill-opacity="1"><g transform="translate(154.334633, 303.154483)"><g><path d="M 8.359375 -9.421875 C 8.160156 -9.535156 7.9375 -9.617188 7.6875 -9.671875 C 7.445312 -9.734375 7.179688 -9.765625 6.890625 -9.765625 C 5.859375 -9.765625 5.066406 -9.425781 4.515625 -8.75 C 3.960938 -8.082031 3.6875 -7.117188 3.6875 -5.859375 L 3.6875 0 L 1.84375 0 L 1.84375 -11.125 L 3.6875 -11.125 L 3.6875 -9.390625 C 4.070312 -10.066406 4.570312 -10.566406 5.1875 -10.890625 C 5.800781 -11.222656 6.550781 -11.390625 7.4375 -11.390625 C 7.5625 -11.390625 7.695312 -11.378906 7.84375 -11.359375 C 8 -11.347656 8.171875 -11.328125 8.359375 -11.296875 Z M 8.359375 -9.421875 "/></g></g></g><g fill="#4d4765" fill-opacity="1"><g transform="translate(162.250185, 303.154483)"><g><path d="M 6.234375 -9.84375 C 5.253906 -9.84375 4.476562 -9.457031 3.90625 -8.6875 C 3.332031 -7.925781 3.046875 -6.878906 3.046875 -5.546875 C 3.046875 -4.222656 3.328125 -3.175781 3.890625 -2.40625 C 4.460938 -1.644531 5.242188 -1.265625 6.234375 -1.265625 C 7.203125 -1.265625 7.96875 -1.644531 8.53125 -2.40625 C 9.101562 -3.175781 9.390625 -4.222656 9.390625 -5.546875 C 9.390625 -6.867188 9.101562 -7.914062 8.53125 -8.6875 C 7.96875 -9.457031 7.203125 -9.84375 6.234375 -9.84375 Z M 6.234375 -11.390625 C 7.816406 -11.390625 9.0625 -10.875 9.96875 -9.84375 C 10.875 -8.8125 11.328125 -7.378906 11.328125 -5.546875 C 11.328125 -3.734375 10.875 -2.304688 9.96875 -1.265625 C 9.0625 -0.234375 7.816406 0.28125 6.234375 0.28125 C 4.628906 0.28125 3.375 -0.234375 2.46875 -1.265625 C 1.570312 -2.304688 1.125 -3.734375 1.125 -5.546875 C 1.125 -7.378906 1.570312 -8.8125 2.46875 -9.84375 C 3.375 -10.875 4.628906 -11.390625 6.234375 -11.390625 Z M 6.234375 -11.390625 "/></g></g></g><g fill="#4d4765" fill-opacity="1"><g transform="translate(174.694748, 303.154483)"><g><path d="M 9.921875 -10.703125 L 9.921875 -8.984375 C 9.410156 -9.273438 8.894531 -9.488281 8.375 -9.625 C 7.851562 -9.769531 7.328125 -9.84375 6.796875 -9.84375 C 5.609375 -9.84375 4.6875 -9.46875 4.03125 -8.71875 C 3.375 -7.96875 3.046875 -6.910156 3.046875 -5.546875 C 3.046875 -4.191406 3.375 -3.140625 4.03125 -2.390625 C 4.6875 -1.640625 5.609375 -1.265625 6.796875 -1.265625 C 7.328125 -1.265625 7.851562 -1.332031 8.375 -1.46875 C 8.894531 -1.613281 9.410156 -1.828125 9.921875 -2.109375 L 9.921875 -0.421875 C 9.410156 -0.179688 8.878906 -0.00390625 8.328125 0.109375 C 7.785156 0.222656 7.207031 0.28125 6.59375 0.28125 C 4.914062 0.28125 3.582031 -0.242188 2.59375 -1.296875 C 1.613281 -2.347656 1.125 -3.765625 1.125 -5.546875 C 1.125 -7.367188 1.617188 -8.796875 2.609375 -9.828125 C 3.609375 -10.867188 4.976562 -11.390625 6.71875 -11.390625 C 7.28125 -11.390625 7.828125 -11.332031 8.359375 -11.21875 C 8.898438 -11.101562 9.421875 -10.929688 9.921875 -10.703125 Z M 9.921875 -10.703125 "/></g></g></g><g fill="#4d4765" fill-opacity="1"><g transform="translate(185.877971, 303.154483)"><g><path d="M 8.359375 -9.421875 C 8.160156 -9.535156 7.9375 -9.617188 7.6875 -9.671875 C 7.445312 -9.734375 7.179688 -9.765625 6.890625 -9.765625 C 5.859375 -9.765625 5.066406 -9.425781 4.515625 -8.75 C 3.960938 -8.082031 3.6875 -7.117188 3.6875 -5.859375 L 3.6875 0 L 1.84375 0 L 1.84375 -11.125 L 3.6875 -11.125 L 3.6875 -9.390625 C 4.070312 -10.066406 4.570312 -10.566406 5.1875 -10.890625 C 5.800781 -11.222656 6.550781 -11.390625 7.4375 -11.390625 C 7.5625 -11.390625 7.695312 -11.378906 7.84375 -11.359375 C 8 -11.347656 8.171875 -11.328125 8.359375 -11.296875 Z M 8.359375 -9.421875 "/></g></g></g><g fill="#4d4765" fill-opacity="1"><g transform="translate(194.240558, 303.154483)"><g><path d="M 6.96875 -5.59375 C 5.5 -5.59375 4.476562 -5.421875 3.90625 -5.078125 C 3.332031 -4.742188 3.046875 -4.171875 3.046875 -3.359375 C 3.046875 -2.710938 3.257812 -2.195312 3.6875 -1.8125 C 4.113281 -1.425781 4.695312 -1.234375 5.4375 -1.234375 C 6.445312 -1.234375 7.257812 -1.59375 7.875 -2.3125 C 8.488281 -3.03125 8.796875 -3.988281 8.796875 -5.1875 L 8.796875 -5.59375 Z M 10.625 -6.34375 L 10.625 0 L 8.796875 0 L 8.796875 -1.6875 C 8.378906 -1.007812 7.859375 -0.507812 7.234375 -0.1875 C 6.609375 0.125 5.847656 0.28125 4.953125 0.28125 C 3.804688 0.28125 2.894531 -0.0351562 2.21875 -0.671875 C 1.550781 -1.304688 1.21875 -2.160156 1.21875 -3.234375 C 1.21875 -4.484375 1.632812 -5.425781 2.46875 -6.0625 C 3.3125 -6.695312 4.566406 -7.015625 6.234375 -7.015625 L 8.796875 -7.015625 L 8.796875 -7.203125 C 8.796875 -8.046875 8.515625 -8.695312 7.953125 -9.15625 C 7.398438 -9.613281 6.625 -9.84375 5.625 -9.84375 C 4.988281 -9.84375 4.367188 -9.765625 3.765625 -9.609375 C 3.171875 -9.460938 2.59375 -9.238281 2.03125 -8.9375 L 2.03125 -10.625 C 2.707031 -10.875 3.359375 -11.0625 3.984375 -11.1875 C 4.609375 -11.320312 5.222656 -11.390625 5.828125 -11.390625 C 7.429688 -11.390625 8.628906 -10.972656 9.421875 -10.140625 C 10.222656 -9.304688 10.625 -8.039062 10.625 -6.34375 Z M 10.625 -6.34375 "/></g></g></g><g fill="#4d4765" fill-opacity="1"><g transform="translate(206.704984, 303.154483)"><g><path d="M 9.015625 -10.796875 L 9.015625 -9.0625 C 8.492188 -9.332031 7.953125 -9.53125 7.390625 -9.65625 C 6.835938 -9.789062 6.265625 -9.859375 5.671875 -9.859375 C 4.765625 -9.859375 4.082031 -9.71875 3.625 -9.4375 C 3.175781 -9.164062 2.953125 -8.75 2.953125 -8.1875 C 2.953125 -7.769531 3.113281 -7.4375 3.4375 -7.1875 C 3.757812 -6.945312 4.410156 -6.71875 5.390625 -6.5 L 6.015625 -6.375 C 7.316406 -6.09375 8.238281 -5.695312 8.78125 -5.1875 C 9.332031 -4.6875 9.609375 -3.976562 9.609375 -3.0625 C 9.609375 -2.03125 9.195312 -1.210938 8.375 -0.609375 C 7.5625 -0.015625 6.4375 0.28125 5 0.28125 C 4.40625 0.28125 3.785156 0.222656 3.140625 0.109375 C 2.492188 -0.00390625 1.816406 -0.175781 1.109375 -0.40625 L 1.109375 -2.296875 C 1.773438 -1.941406 2.4375 -1.675781 3.09375 -1.5 C 3.75 -1.320312 4.398438 -1.234375 5.046875 -1.234375 C 5.910156 -1.234375 6.570312 -1.378906 7.03125 -1.671875 C 7.5 -1.972656 7.734375 -2.394531 7.734375 -2.9375 C 7.734375 -3.425781 7.5625 -3.800781 7.21875 -4.0625 C 6.882812 -4.332031 6.15625 -4.59375 5.03125 -4.84375 L 4.390625 -4.984375 C 3.253906 -5.222656 2.4375 -5.585938 1.9375 -6.078125 C 1.4375 -6.578125 1.1875 -7.253906 1.1875 -8.109375 C 1.1875 -9.160156 1.554688 -9.96875 2.296875 -10.53125 C 3.035156 -11.101562 4.085938 -11.390625 5.453125 -11.390625 C 6.128906 -11.390625 6.765625 -11.335938 7.359375 -11.234375 C 7.953125 -11.140625 8.503906 -10.992188 9.015625 -10.796875 Z M 9.015625 -10.796875 "/></g></g></g><g fill="#4d4765" fill-opacity="1"><g transform="translate(217.30223, 303.154483)"><g><path d="M 3.71875 -14.28125 L 3.71875 -11.125 L 7.484375 -11.125 L 7.484375 -9.703125 L 3.71875 -9.703125 L 3.71875 -3.671875 C 3.71875 -2.753906 3.84375 -2.164062 4.09375 -1.90625 C 4.34375 -1.65625 4.847656 -1.53125 5.609375 -1.53125 L 7.484375 -1.53125 L 7.484375 0 L 5.609375 0 C 4.203125 0 3.226562 -0.257812 2.6875 -0.78125 C 2.15625 -1.3125 1.890625 -2.273438 1.890625 -3.671875 L 1.890625 -9.703125 L 0.546875 -9.703125 L 0.546875 -11.125 L 1.890625 -11.125 L 1.890625 -14.28125 Z M 3.71875 -14.28125 "/></g></g></g><g fill="#4d4765" fill-opacity="1"><g transform="translate(225.277476, 303.154483)"><g><path d="M 1.921875 -11.125 L 3.75 -11.125 L 3.75 0 L 1.921875 0 Z M 1.921875 -15.453125 L 3.75 -15.453125 L 3.75 -13.140625 L 1.921875 -13.140625 Z M 1.921875 -15.453125 "/></g></g></g><g fill="#4d4765" fill-opacity="1"><g transform="translate(230.928679, 303.154483)"><g><path d="M 11.171875 -6.71875 L 11.171875 0 L 9.34375 0 L 9.34375 -6.65625 C 9.34375 -7.707031 9.132812 -8.492188 8.71875 -9.015625 C 8.3125 -9.535156 7.695312 -9.796875 6.875 -9.796875 C 5.882812 -9.796875 5.101562 -9.484375 4.53125 -8.859375 C 3.96875 -8.234375 3.6875 -7.375 3.6875 -6.28125 L 3.6875 0 L 1.84375 0 L 1.84375 -11.125 L 3.6875 -11.125 L 3.6875 -9.390625 C 4.125 -10.066406 4.640625 -10.566406 5.234375 -10.890625 C 5.828125 -11.222656 6.507812 -11.390625 7.28125 -11.390625 C 8.5625 -11.390625 9.53125 -10.992188 10.1875 -10.203125 C 10.84375 -9.410156 11.171875 -8.25 11.171875 -6.71875 Z M 11.171875 -6.71875 "/></g></g></g><g fill="#4d4765" fill-opacity="1"><g transform="translate(243.820173, 303.154483)"><g><path d="M 6.96875 -5.59375 C 5.5 -5.59375 4.476562 -5.421875 3.90625 -5.078125 C 3.332031 -4.742188 3.046875 -4.171875 3.046875 -3.359375 C 3.046875 -2.710938 3.257812 -2.195312 3.6875 -1.8125 C 4.113281 -1.425781 4.695312 -1.234375 5.4375 -1.234375 C 6.445312 -1.234375 7.257812 -1.59375 7.875 -2.3125 C 8.488281 -3.03125 8.796875 -3.988281 8.796875 -5.1875 L 8.796875 -5.59375 Z M 10.625 -6.34375 L 10.625 0 L 8.796875 0 L 8.796875 -1.6875 C 8.378906 -1.007812 7.859375 -0.507812 7.234375 -0.1875 C 6.609375 0.125 5.847656 0.28125 4.953125 0.28125 C 3.804688 0.28125 2.894531 -0.0351562 2.21875 -0.671875 C 1.550781 -1.304688 1.21875 -2.160156 1.21875 -3.234375 C 1.21875 -4.484375 1.632812 -5.425781 2.46875 -6.0625 C 3.3125 -6.695312 4.566406 -7.015625 6.234375 -7.015625 L 8.796875 -7.015625 L 8.796875 -7.203125 C 8.796875 -8.046875 8.515625 -8.695312 7.953125 -9.15625 C 7.398438 -9.613281 6.625 -9.84375 5.625 -9.84375 C 4.988281 -9.84375 4.367188 -9.765625 3.765625 -9.609375 C 3.171875 -9.460938 2.59375 -9.238281 2.03125 -8.9375 L 2.03125 -10.625 C 2.707031 -10.875 3.359375 -11.0625 3.984375 -11.1875 C 4.609375 -11.320312 5.222656 -11.390625 5.828125 -11.390625 C 7.429688 -11.390625 8.628906 -10.972656 9.421875 -10.140625 C 10.222656 -9.304688 10.625 -8.039062 10.625 -6.34375 Z M 10.625 -6.34375 "/></g></g></g><g fill="#4d4765" fill-opacity="1"><g transform="translate(256.284599, 303.154483)"><g><path d="M 3.71875 -14.28125 L 3.71875 -11.125 L 7.484375 -11.125 L 7.484375 -9.703125 L 3.71875 -9.703125 L 3.71875 -3.671875 C 3.71875 -2.753906 3.84375 -2.164062 4.09375 -1.90625 C 4.34375 -1.65625 4.847656 -1.53125 5.609375 -1.53125 L 7.484375 -1.53125 L 7.484375 0 L 5.609375 0 C 4.203125 0 3.226562 -0.257812 2.6875 -0.78125 C 2.15625 -1.3125 1.890625 -2.273438 1.890625 -3.671875 L 1.890625 -9.703125 L 0.546875 -9.703125 L 0.546875 -11.125 L 1.890625 -11.125 L 1.890625 -14.28125 Z M 3.71875 -14.28125 "/></g></g></g><g fill="#4d4765" fill-opacity="1"><g transform="translate(264.259846, 303.154483)"><g><path d="M 1.921875 -11.125 L 3.75 -11.125 L 3.75 0 L 1.921875 0 Z M 1.921875 -15.453125 L 3.75 -15.453125 L 3.75 -13.140625 L 1.921875 -13.140625 Z M 1.921875 -15.453125 "/></g></g></g><g fill="#4d4765" fill-opacity="1"><g transform="translate(269.911048, 303.154483)"><g><path d="M 6.234375 -9.84375 C 5.253906 -9.84375 4.476562 -9.457031 3.90625 -8.6875 C 3.332031 -7.925781 3.046875 -6.878906 3.046875 -5.546875 C 3.046875 -4.222656 3.328125 -3.175781 3.890625 -2.40625 C 4.460938 -1.644531 5.242188 -1.265625 6.234375 -1.265625 C 7.203125 -1.265625 7.96875 -1.644531 8.53125 -2.40625 C 9.101562 -3.175781 9.390625 -4.222656 9.390625 -5.546875 C 9.390625 -6.867188 9.101562 -7.914062 8.53125 -8.6875 C 7.96875 -9.457031 7.203125 -9.84375 6.234375 -9.84375 Z M 6.234375 -11.390625 C 7.816406 -11.390625 9.0625 -10.875 9.96875 -9.84375 C 10.875 -8.8125 11.328125 -7.378906 11.328125 -5.546875 C 11.328125 -3.734375 10.875 -2.304688 9.96875 -1.265625 C 9.0625 -0.234375 7.816406 0.28125 6.234375 0.28125 C 4.628906 0.28125 3.375 -0.234375 2.46875 -1.265625 C 1.570312 -2.304688 1.125 -3.734375 1.125 -5.546875 C 1.125 -7.378906 1.570312 -8.8125 2.46875 -9.84375 C 3.375 -10.875 4.628906 -11.390625 6.234375 -11.390625 Z M 6.234375 -11.390625 "/></g></g></g><g fill="#4d4765" fill-opacity="1"><g transform="translate(282.355599, 303.154483)"><g><path d="M 11.171875 -6.71875 L 11.171875 0 L 9.34375 0 L 9.34375 -6.65625 C 9.34375 -7.707031 9.132812 -8.492188 8.71875 -9.015625 C 8.3125 -9.535156 7.695312 -9.796875 6.875 -9.796875 C 5.882812 -9.796875 5.101562 -9.484375 4.53125 -8.859375 C 3.96875 -8.234375 3.6875 -7.375 3.6875 -6.28125 L 3.6875 0 L 1.84375 0 L 1.84375 -11.125 L 3.6875 -11.125 L 3.6875 -9.390625 C 4.125 -10.066406 4.640625 -10.566406 5.234375 -10.890625 C 5.828125 -11.222656 6.507812 -11.390625 7.28125 -11.390625 C 8.5625 -11.390625 9.53125 -10.992188 10.1875 -10.203125 C 10.84375 -9.410156 11.171875 -8.25 11.171875 -6.71875 Z M 11.171875 -6.71875 "/></g></g></g></svg>